<svg id="Слой_1" data-name="Слой 1" xmlns="http://www.w3.org/2000/svg" viewBox="0 0 150 190"><defs><style>.cls-1{fill:#1eb5e7;fill-rule:evenodd;}</style></defs><title>Монтажная область 36</title><path class="cls-1" d="M115.35,86.56,113.23,82c4-12.76-3.32-18-18.3-10.63,34,15.5,27.28,74.07-18.67,74.07a42.08,42.08,0,0,1-15.34-2.74c-34.24,18.1-43.64-11.92-1.17-54.39.32-.32.63-.61,1-.92C52,91.62,44.21,99,37.56,108.34c-1-20.85,12.94-42.41,42.21-40.62a48,48,0,0,1,4.79.53C110.85,52.46,125.45,63.17,115.35,86.56Zm-38.6,29.68c13,0,13.42-18.64.87-19.4C63.72,96,63.69,116.24,76.75,116.24Zm-.38,23.1c20.07,0,31.26-13.24,33.42-27.83-4.63-2.88-10.93-.16-10.93,9.34,0,9.82-10.16,8.13-10.16,3,0-4.85-7.37-5.14-7.37.51,0,12.76-19.55,12.55-19.55-.89,0-.87,0-2.71,0-4-.23-5.43-9.13-5-8.92.49.1,2.35-1,4.14-3.69,5.37C54.42,133.53,63.52,139.34,76.37,139.34ZM57,140.89A35.77,35.77,0,0,1,41.78,125C33.88,141.31,40.67,148.58,57,140.89Z"/></svg>